<svg width="200" height="200" viewBox="0 0 200 200" fill="none" xmlns="http://www.w3.org/2000/svg">
<path fill-rule="evenodd" clip-rule="evenodd" d="M143.726 1.98665C142.64 3.55411 142.379 4.87085 143.146 4.91296C143.911 4.95506 142.588 6.25841 140.204 7.80864C137.272 9.71676 136.187 11.6191 136.853 13.6938C137.631 16.1244 137.122 16.4899 134.399 15.4545C132.354 14.6775 130.963 14.9703 130.963 16.1799C130.963 17.4143 128.85 17.8105 125.581 17.1885C114.273 15.0335 74.0309 24.911 53.5032 34.8784C36.4972 43.1348 20.3759 52.9721 16.7729 57.2898C11.9368 63.085 11.5519 71.5002 15.8322 77.8294C18.5776 81.8906 19.3857 82.1222 23.8097 80.1241C26.5184 78.9031 29.1089 78.6275 29.5657 79.5136C30.6837 81.682 27.5677 83.8389 25.5139 82.3193C24.6147 81.6514 24.0749 81.9748 24.316 83.0351C24.5572 84.0954 19.5454 91.0427 13.1762 98.4743C3.44816 109.825 1.60031 112.981 1.62107 118.22C1.6562 127.016 3.63343 129.95 8.73939 128.78C11.52 128.143 13.3247 128.723 13.8725 130.432C14.3357 131.881 15.7172 133.066 16.9406 133.066C18.1639 133.066 19.1653 134.357 19.1653 135.936C19.1653 138.526 21.0611 139.657 24.3559 139.033C25.0156 138.909 25.5538 139.573 25.5538 140.509C25.5538 141.444 26.8123 142.089 28.3487 141.944C31.297 141.663 31.3896 142.281 29.6871 150.93C28.9892 154.48 29.1936 155.929 30.2812 155.123C33.049 153.073 32.1419 159.039 28.946 163.907C26.0617 168.302 25.977 169.525 27.087 190.736C27.333 195.416 47.6115 190.807 48.1561 185.948C48.2903 184.757 48.4723 182.562 48.5634 181.069C48.8876 175.641 52.7047 176.665 52.7286 182.189C52.759 188.864 54.9422 193.329 57.3171 191.571C58.2946 190.847 59.0931 191.186 59.0931 192.323C59.0931 193.461 60.8691 195.36 63.038 196.545C66.0693 198.2 67.561 198.126 69.4775 196.221C71.5602 194.149 72.33 194.332 74.1651 197.339C76.1662 200.619 76.976 200.717 83.2989 198.453C87.1144 197.086 91.9313 196.022 94.0028 196.091C96.1509 196.162 99.0449 194.269 100.741 191.685C102.753 188.621 106.824 186.33 113.345 184.596C118.643 183.19 122.978 181.253 122.978 180.294C122.978 179.335 124.52 179.035 126.408 179.626C128.325 180.227 132.528 179.056 135.938 176.973C141.614 173.502 148.261 171.448 163.439 168.48C167.839 167.618 169.316 166.516 168.69 164.564C168.125 162.799 168.78 161.984 170.554 162.239C175.364 162.931 190.056 159.563 190.056 157.766C190.056 156.813 191.546 156.032 193.367 156.032C195.632 156.032 196.513 154.997 196.152 152.759C195.429 148.252 186.943 146.371 172.488 147.513C162.891 148.271 161.303 148.04 164.502 146.352C166.698 145.192 171.37 143.971 174.884 143.64C183.104 142.863 196.997 135.688 195.585 132.947C194.999 131.812 192.977 130.137 191.091 129.224C188.766 128.101 188.478 127.527 190.198 127.445C191.596 127.379 193.532 125.238 194.501 122.687C195.47 120.135 197.563 117.667 199.149 117.198C200.736 116.729 200.038 116.518 197.599 116.727C194.999 116.949 193.417 116.25 193.773 115.039C194.107 113.9 195.563 113.223 197.01 113.533C198.455 113.841 199.639 113.196 199.639 112.097C199.639 109.527 194.685 109.54 189.01 112.126C185.321 113.806 184.203 113.565 182.462 110.713C181.237 108.704 181.013 107.012 181.925 106.648C182.785 106.306 183.128 104.901 182.689 103.529C182.243 102.134 183.288 100.595 185.059 100.04C187.903 99.148 188.151 98.0111 186.985 91.2054C186.916 90.8131 185.784 91.5633 184.468 92.8724C182.555 94.7748 181.031 94.748 176.882 92.7365C174.026 91.3528 171.178 89.3145 170.554 88.2083C169.832 86.926 168.633 87.4849 167.254 89.7432C164.847 93.6877 158.628 93.2169 159.385 89.1461C159.738 87.2494 158.317 86.8552 153.795 87.5959C148.154 88.5203 148.038 88.4456 152.125 86.5337C154.541 85.4045 156.517 83.7853 156.517 82.9356C156.517 80.4112 164.175 81.1825 164.935 83.7834C165.437 85.504 166.595 85.1519 169.061 82.5299C172.451 78.9241 172.488 78.9299 172.488 83.148C172.488 86.1987 173.285 87.2169 175.283 86.7212C176.821 86.3404 177.979 84.5547 177.856 82.7538C177.735 80.9509 178.632 79.4772 179.852 79.4772C181.072 79.4772 182.071 78.6926 182.071 77.7318C182.071 75.749 185.096 75.9902 188.06 78.2083C189.159 79.0313 190.106 79.437 190.166 79.1117C191.926 69.6553 191.375 68.3979 184.455 66.0763C178.327 64.0208 177.659 63.2687 178.769 59.6725C179.571 57.0735 182.162 54.9931 185.923 53.9271C193.349 51.8218 193.051 47.2726 185.265 43.908C180.523 41.8583 179.862 40.1339 184.155 41.0085C184.862 41.152 186.888 40.0554 188.657 38.5702C191.802 35.9291 191.772 35.8104 187.304 33.1387C184.046 31.1904 181.467 30.9148 178.311 32.176C173.101 34.2564 173.17 34.3157 171.776 26.5167C170.821 21.1693 171.132 20.3694 174.385 19.8182C176.415 19.4717 178.078 17.8985 178.078 16.3196C178.078 12.7885 170.667 11.4756 166.355 14.2411C163.83 15.8622 163.105 15.5292 162.433 12.4459C161.415 7.78376 154.116 7.2517 152.682 11.734C152.12 13.4852 150.676 14.333 149.317 13.7072C148.006 13.1043 146.934 13.51 146.934 14.6067C146.934 15.7033 145.677 16.31 144.139 15.956C140.18 15.0411 140.672 9.97514 144.938 7.73208C148.598 5.80865 149.673 2.08043 147.115 0.185704C146.337 -0.39037 144.812 0.419196 143.726 1.98665ZM165.601 4.15889C163.407 6.78855 164.544 10.8498 167.297 10.2144C168.835 9.85839 170.092 8.35983 170.092 6.88424C170.092 3.86224 167.275 2.15316 165.601 4.15889ZM164.502 21.1043C163.408 22.6832 161.795 23.9751 160.917 23.9751C160.026 23.9751 160.2 22.7062 161.308 21.1043C162.402 19.5253 164.015 18.2335 164.894 18.2335C165.785 18.2335 165.611 19.5024 164.502 21.1043ZM185.142 19.6689C185.075 20.4574 184.771 22.6851 184.465 24.6181C183.938 27.9521 184.065 27.9636 186.945 24.8421C188.616 23.0315 189.596 20.8038 189.125 19.8909C188.076 17.8564 185.31 17.7014 185.142 19.6689ZM178.444 42.3559C177.913 42.9913 176.535 43.0602 175.384 42.5071C174.109 41.8965 174.488 41.4429 176.348 41.3511C178.032 41.2688 178.974 41.7205 178.444 42.3559ZM176.795 52.1089C174.603 52.7884 174.336 53.6094 175.674 55.5443C176.966 57.4084 176.923 58.463 175.513 59.506C174.291 60.4113 174.008 60.1204 174.738 58.706C175.379 57.4639 174.788 55.9788 173.397 55.3395C169.963 53.7606 171.905 50.7195 176.176 50.9912C179.004 51.1711 179.122 51.3855 176.795 52.1089ZM169.294 60.3386C169.294 61.3912 167.676 62.239 165.7 62.2237C162.795 62.1988 162.565 61.839 164.502 60.3386C167.599 57.9405 169.294 57.9405 169.294 60.3386ZM38.7922 68.0419C35.0933 72.2256 30.8482 75.6495 29.3613 75.6495C26.9257 75.6495 26.9592 75.2476 29.6967 71.6227C32.3575 68.0993 42.4959 60.574 44.7191 60.4706C45.1583 60.4515 42.4911 63.8582 38.7922 68.0419ZM8.67551 151.106C7.11673 152.47 4.52781 153.176 2.92112 152.673C1.31442 152.17 0 152.719 0 153.894C0 155.071 1.38629 156.032 3.08083 156.032C4.77377 156.032 7.23811 157.324 8.55573 158.903C9.87334 160.482 11.7308 161.774 12.6843 161.774C13.6377 161.774 15.6661 162.702 17.1913 163.835C20.3712 166.198 28.748 163.27 28.748 159.795C28.748 158.654 28.1044 158.197 27.3186 158.778C25.9339 159.804 23.2092 154.566 23.6836 151.795C23.8129 151.042 22.9728 150.863 21.8165 151.395C20.6618 151.925 17.8701 151.519 15.6134 150.491C12.6603 149.146 10.715 149.318 8.67551 151.106ZM11.1271 172.464C12.4159 174.48 13.601 176.399 13.7623 176.734C13.922 177.067 14.505 176.464 15.0576 175.395C15.6086 174.325 14.4235 172.403 12.4223 171.125C8.99174 168.935 8.91827 169.012 11.1271 172.464Z" fill="black"/>
</svg>
