<svg width="720" height="405" viewBox="0 0 720 405" fill="none" xmlns="http://www.w3.org/2000/svg">
<path fill-rule="evenodd" clip-rule="evenodd" d="M346.819 7.56413C277.793 31.2557 275.491 31.7545 269.608 24.3369C257.042 8.48456 159.13 28.7651 86.8501 62.1946C56.375 76.2874 51.0163 80.2205 49.88 89.3359C47.9722 104.627 59.3563 107.311 73.4743 94.901C85.9779 83.9099 156.983 51.192 160.765 54.6765C162.082 55.8947 153.067 61.5952 140.727 67.3498C113.178 80.2011 74.5896 103.985 48.0644 124.459C32.8814 136.177 28.1474 142.447 28.1474 150.831C28.1474 163.168 33.1623 164.409 50.0896 156.265C63.2265 149.941 65.9561 151.999 63.0503 166.03C61.4193 173.888 54.6307 178.819 30.94 189.365C4.23031 201.254 0.812973 204.011 0.18821 214.19C-0.893596 231.779 2.69984 239.773 10.6666 237.491C14.5158 236.385 20.4951 237.158 23.9544 239.208C29.1999 242.318 28.1642 244.479 17.7026 252.261L5.16116 261.589L29.2334 264.362C50.9031 266.86 53.3057 268.051 53.3057 276.285C53.3057 287.295 72.774 294.075 78.7533 285.149C81.7388 280.697 84.7871 281.014 96.905 287.032C105.731 291.418 116.533 293.583 124.319 292.528C140.06 290.397 140.278 291.886 125.913 303.271C114.809 312.069 114.558 312.089 107.597 304.687C103.719 300.56 98.0916 297.184 95.0936 297.184C92.0956 297.184 90.888 298.329 92.4059 299.729C93.9238 301.129 93.1858 304.47 90.7664 307.158C87.3994 310.902 88.4141 311.551 95.1062 309.939C100.842 308.554 106.486 310.646 111.56 316.045C115.807 320.558 121.891 324.31 125.078 324.379C129.036 324.464 128.323 326.282 122.835 330.115C115.946 334.922 115.501 337.165 119.745 345.75C122.466 351.265 123.594 357.414 122.252 359.418C120.025 362.74 160.224 360.802 173.856 356.927C181.906 354.638 180.103 358.985 169.663 367.013C164.476 371.008 162.589 374.33 165.47 374.404C168.355 374.473 170.711 376.376 170.711 378.627C170.711 380.878 168.35 381.415 165.47 379.818C161.373 377.548 161.39 378.236 165.541 382.966C168.464 386.296 169.751 391.675 168.401 394.92C167.05 398.165 168.069 402.032 170.665 403.51C176.971 407.106 195.869 402.516 195.869 397.388C195.869 395.148 198.8 390.612 202.385 387.305C208.276 381.872 208.008 380.53 199.589 373.294C193.823 368.34 192.142 364.72 195.169 363.788C203.203 361.32 200.712 355.195 191.676 355.195C187.064 355.195 183.29 353.454 183.29 351.327C183.29 347.108 199.76 346.11 209.937 349.714C213.69 351.041 215.258 354.479 213.761 358.083C212.075 362.129 212.876 363.254 216.122 361.402C218.822 359.862 221.028 356.1 221.028 353.033C221.028 349.421 225.451 347.46 233.607 347.46C241.993 347.46 246.186 349.393 246.186 353.261C246.186 356.451 243.356 359.062 239.896 359.062C236.437 359.062 233.607 360.996 233.607 363.359C233.607 366.178 238.663 366.781 248.282 365.118C259.91 363.107 262.958 363.819 262.958 368.556C262.958 376.133 268.929 376.206 277.034 368.73C280.493 365.54 287.705 362.983 293.06 363.053C302.046 363.165 302.23 363.571 295.454 368.313C288.687 373.05 285.265 382.266 290.271 382.266C291.458 382.266 297.588 376.999 303.899 370.563C310.209 364.128 319.493 358.157 324.533 357.298C329.573 356.44 337.12 354.046 341.305 351.981C345.49 349.912 350.802 347.614 353.108 346.876C355.415 346.133 356.878 344.354 356.362 342.923C355.842 341.492 360.895 341.771 367.587 343.542C376.631 345.932 380.338 345.36 382.024 341.307C384.619 335.073 400.398 334.172 409.715 339.725C413.174 341.786 414.222 343.5 412.042 343.534C409.861 343.565 415.287 349.684 424.097 357.128C432.911 364.573 442.953 370.664 446.412 370.664C449.871 370.664 463.805 365.462 477.374 359.101C490.942 352.743 510.046 346.508 519.824 345.252C545.246 341.98 559.574 336.248 561.784 328.463C563.151 323.637 575.248 318.748 604.054 311.377C649.704 299.698 650.169 299.628 646.622 304.919C645.196 307.046 646.089 308.786 648.601 308.786C651.117 308.786 654.261 306.176 655.586 302.985C656.916 299.794 662.044 297.157 666.987 297.126C671.931 297.095 683.52 294.62 692.745 291.63C709.077 286.336 708.159 283.822 688.85 280.976C680.95 279.808 680.942 279.614 688.615 272.541C696.284 265.468 696.284 265.181 688.561 259.972C684.217 257.041 674.417 254.643 666.786 254.643C657.016 254.643 652.911 252.86 652.911 248.614C652.911 245.299 654.626 243.563 656.727 244.758C658.823 245.953 663.62 245.841 667.39 244.51C672.87 242.569 673.7 238.798 671.558 225.618C669.822 214.94 670.568 208.188 673.679 206.413C677.256 204.375 677.197 202.259 673.457 198.102C669.499 193.701 669.792 191.527 674.832 187.811C689.269 177.168 685.973 142.489 670.522 142.489C658.085 142.489 671.046 135.419 694.729 129.294C708.628 125.697 720 120.998 720 118.856C720 116.713 717.824 116.203 715.161 117.719C707.828 121.899 690.649 122.916 690.649 119.173C690.649 117.359 692.536 114.799 694.842 113.484C701.978 109.415 699.534 105.683 686.833 101.263C676.757 97.7551 672.556 98.2772 662.723 104.256C647.196 113.7 636.139 113.65 636.139 104.136C636.139 100.06 638.5 95.8408 641.38 94.7618C645.326 93.2883 645.066 91.7878 640.332 88.6977C635.124 85.3022 635.665 84.5867 643.477 84.5365C648.668 84.5055 652.911 82.9779 652.911 81.1486C652.911 79.3155 647.993 78.6851 641.984 79.7448C627.74 82.2547 623.715 75.7382 625.929 53.756C628.78 25.4855 625.631 23.6485 587.11 31.07L554.387 37.3777L534.512 25.4971C518.927 16.1845 515.639 12.5028 519.296 8.44202C522.86 4.47796 522.357 3.26361 517.149 3.26361C513.409 3.26361 510.348 5.18956 510.348 7.54479C510.348 9.90002 507.912 10.9635 504.93 9.90776C501.953 8.85583 495.932 10.4066 491.55 13.3613C487.169 16.316 485.458 18.7331 487.743 18.7331C490.028 18.7331 494.163 16.6447 496.93 14.0923C500.616 10.6928 501.962 10.6426 501.962 13.9105C501.962 16.3624 495.316 21.2817 487.189 24.8358C469.935 32.3888 432.026 30.7297 426.038 22.1635C423.489 18.5127 421.287 18.1259 419.149 20.9491C417.421 23.2309 412.23 26.2822 407.618 27.7247L399.232 30.3546L407.618 24.2983C415.899 18.3193 415.857 18.1221 404.238 8.82102C390.011 -2.57612 377.185 -2.85844 346.819 7.56413ZM394.829 26.0347C392.636 27.922 386.129 30.6059 380.363 31.9943L369.881 34.5236L380.363 28.6993C392.045 22.206 401.232 20.5121 394.829 26.0347ZM668.547 237.642C667.155 238.926 663.536 239.065 660.513 237.947C657.167 236.714 658.161 235.797 663.046 235.612C667.465 235.445 669.939 236.358 668.547 237.642ZM208.448 370.25C208.448 372.149 211.279 374.705 214.738 375.931C218.57 377.285 221.028 375.935 221.028 372.478C221.028 369.353 218.197 366.797 214.738 366.797C211.279 366.797 208.448 368.351 208.448 370.25ZM248.152 370.857C244.169 376.805 249.624 380.642 255.008 375.676C258.019 372.899 258.09 370.738 255.226 369.105C252.878 367.767 249.695 368.556 248.152 370.857ZM153.155 404.244C156.178 405.362 159.796 405.223 161.189 403.939C162.581 402.655 160.107 401.742 155.687 401.909C150.802 402.094 149.809 403.011 153.155 404.244Z" fill="black"/>
</svg>
