<svg width="460" height="258" viewBox="0 0 460 258" fill="none" xmlns="http://www.w3.org/2000/svg">
<path fill-rule="evenodd" clip-rule="evenodd" d="M221.579 4.81863C177.479 19.911 176.008 20.2288 172.25 15.5035C164.221 5.40498 101.666 18.3244 55.4876 39.6203C36.0174 48.5979 32.5938 51.1034 31.8678 56.9103C30.6489 66.6516 37.9221 68.3613 46.9419 60.4555C54.9303 53.4537 100.295 32.6112 102.711 34.8309C103.552 35.607 97.7926 39.2384 89.9086 42.9043C72.3083 51.0911 47.6545 66.2426 30.7078 79.2852C21.0076 86.7501 17.9831 90.7437 17.9831 96.0849C17.9831 103.944 21.187 104.735 32.0017 99.5464C40.3947 95.5183 42.1386 96.8289 40.2822 105.767C39.2401 110.773 34.903 113.914 19.7672 120.633C2.7027 128.206 0.5194 129.963 0.120245 136.447C-0.570909 147.652 1.7249 152.744 6.81479 151.291C9.27401 150.586 13.0941 151.079 15.3042 152.384C18.6555 154.365 17.9938 155.742 11.31 160.699L3.29741 166.642L18.6769 168.408C32.5214 170 34.0564 170.758 34.0564 176.004C34.0564 183.018 46.4945 187.336 50.3146 181.65C52.222 178.815 54.1695 179.017 61.9115 182.85C67.5506 185.644 74.4514 187.024 79.4261 186.351C89.4827 184.993 89.622 185.942 80.4441 193.195C73.3504 198.8 73.1897 198.812 68.7427 194.097C66.2647 191.468 62.6697 189.317 60.7542 189.317C58.8388 189.317 58.0673 190.046 59.0371 190.938C60.0068 191.83 59.5354 193.959 57.9896 195.671C55.8385 198.056 56.4868 198.47 60.7623 197.442C64.427 196.56 68.0328 197.893 71.2742 201.332C73.988 204.208 77.875 206.597 79.911 206.642C82.4399 206.696 81.9845 207.854 78.4778 210.295C74.0764 213.358 73.7924 214.786 76.5034 220.256C78.242 223.769 78.9627 227.686 78.1054 228.962C76.6829 231.079 102.365 229.844 111.075 227.376C116.218 225.917 115.066 228.686 108.396 233.801C105.082 236.346 103.876 238.462 105.717 238.509C107.56 238.553 109.065 239.766 109.065 241.199C109.065 242.633 107.557 242.976 105.717 241.958C103.099 240.512 103.11 240.951 105.762 243.964C107.629 246.085 108.452 249.512 107.589 251.579C106.727 253.646 107.378 256.109 109.036 257.051C113.065 259.342 125.139 256.417 125.139 253.151C125.139 251.724 127.011 248.834 129.302 246.728C133.066 243.266 132.894 242.412 127.515 237.802C123.831 234.646 122.757 232.34 124.691 231.746C129.824 230.175 128.233 226.272 122.46 226.272C119.513 226.272 117.102 225.163 117.102 223.808C117.102 221.121 127.625 220.485 134.126 222.781C136.524 223.626 137.526 225.816 136.57 228.112C135.493 230.689 136.004 231.406 138.078 230.226C139.803 229.246 141.212 226.849 141.212 224.895C141.212 222.594 144.038 221.345 149.249 221.345C154.606 221.345 157.285 222.577 157.285 225.04C157.285 227.073 155.477 228.736 153.267 228.736C151.057 228.736 149.249 229.968 149.249 231.473C149.249 233.269 152.479 233.653 158.625 232.594C166.053 231.313 168.001 231.766 168.001 234.784C168.001 239.61 171.816 239.657 176.994 234.895C179.204 232.862 183.812 231.234 187.233 231.278C192.974 231.35 193.091 231.608 188.762 234.629C184.439 237.647 182.253 243.518 185.451 243.518C186.209 243.518 190.126 240.162 194.158 236.063C198.189 231.963 204.12 228.159 207.34 227.612C210.56 227.065 215.382 225.54 218.056 224.225C220.73 222.907 224.124 221.443 225.597 220.973C227.07 220.5 228.005 219.366 227.676 218.455C227.344 217.543 230.572 217.721 234.847 218.849C240.626 220.372 242.994 220.007 244.071 217.425C245.729 213.454 255.81 212.88 261.762 216.417C263.972 217.731 264.642 218.822 263.249 218.844C261.856 218.864 265.322 222.761 270.951 227.504C276.582 232.246 282.998 236.127 285.208 236.127C287.418 236.127 296.32 232.813 304.989 228.76C313.658 224.71 325.863 220.739 332.11 219.938C348.352 217.854 357.506 214.203 358.917 209.243C359.791 206.169 367.519 203.055 385.923 198.359C415.088 190.919 415.386 190.874 413.119 194.244C412.209 195.6 412.779 196.708 414.384 196.708C415.991 196.708 418 195.045 418.847 193.013C419.696 190.98 422.972 189.3 426.131 189.28C429.289 189.261 436.694 187.684 442.587 185.779C453.021 182.407 452.435 180.805 440.099 178.992C435.051 178.248 435.046 178.125 439.948 173.619C444.848 169.113 444.848 168.93 439.914 165.612C437.138 163.744 430.878 162.217 426.002 162.217C419.76 162.217 417.138 161.081 417.138 158.376C417.138 156.265 418.233 155.159 419.576 155.92C420.915 156.681 423.98 156.61 426.388 155.762C429.889 154.525 430.42 152.123 429.051 143.727C427.942 136.925 428.419 132.623 430.406 131.493C432.691 130.194 432.654 128.847 430.264 126.198C427.735 123.395 427.923 122.01 431.143 119.642C440.366 112.862 438.261 90.7708 428.389 90.7708C420.443 90.7708 428.724 86.2672 443.854 82.3648C452.735 80.0736 460 77.0802 460 75.7154C460 74.3505 458.61 74.0253 456.909 74.9911C452.223 77.6543 441.248 78.3022 441.248 75.9174C441.248 74.7619 442.453 73.131 443.927 72.2933C448.486 69.7016 446.924 67.3241 438.81 64.5082C432.373 62.2736 429.688 62.6062 423.406 66.4151C413.486 72.4313 406.422 72.3993 406.422 66.3387C406.422 63.742 407.93 61.0541 409.771 60.3668C412.292 59.4281 412.126 58.4722 409.101 56.5037C405.774 54.3407 406.119 53.8849 411.11 53.8529C414.427 53.8331 417.138 52.86 417.138 51.6947C417.138 50.5269 413.995 50.1253 410.157 50.8004C401.056 52.3993 398.485 48.248 399.899 34.2446C401.721 16.2352 399.709 15.065 375.098 19.7928L354.192 23.811L341.494 16.2426C331.536 10.3101 329.436 7.96472 331.772 5.37788C334.049 2.85263 333.728 2.07904 330.401 2.07904C328.011 2.07904 326.055 3.30594 326.055 4.80631C326.055 6.30668 324.499 6.98419 322.594 6.31161C320.692 5.64149 316.845 6.62942 314.046 8.51166C311.247 10.3939 310.154 11.9337 311.614 11.9337C313.074 11.9337 315.715 10.6033 317.483 8.97729C319.838 6.81173 320.698 6.7797 320.698 8.86149C320.698 10.4235 316.452 13.5572 311.26 15.8213C300.236 20.6329 276.016 19.576 272.191 14.1189C270.562 11.7933 269.156 11.5469 267.79 13.3454C266.686 14.7989 263.369 16.7427 260.423 17.6617L255.065 19.337L260.423 15.4789C265.713 11.6701 265.687 11.5444 258.263 5.61932C249.174 -1.64109 240.979 -1.82093 221.579 4.81863ZM252.252 16.5851C250.851 17.7873 246.693 19.4971 243.01 20.3816L236.313 21.9928L243.01 18.2825C250.473 14.146 256.343 13.067 252.252 16.5851ZM427.127 151.387C426.238 152.205 423.926 152.293 421.995 151.581C419.857 150.795 420.492 150.212 423.613 150.093C426.436 149.987 428.017 150.569 427.127 151.387ZM133.175 235.863C133.175 237.073 134.984 238.701 137.194 239.482C139.642 240.344 141.212 239.485 141.212 237.282C141.212 235.292 139.404 233.663 137.194 233.663C134.984 233.663 133.175 234.653 133.175 235.863ZM158.542 236.25C155.997 240.039 159.482 242.483 162.922 239.32C164.845 237.551 164.891 236.174 163.061 235.134C161.561 234.281 159.528 234.784 158.542 236.25ZM97.8488 257.519C99.7803 258.231 102.092 258.142 102.982 257.324C103.871 256.506 102.29 255.925 99.4669 256.031C96.346 256.149 95.7111 256.733 97.8488 257.519Z" fill="black"/>
</svg>
