<svg width="320" height="320" viewBox="0 0 320 320" fill="none" xmlns="http://www.w3.org/2000/svg">
<path fill-rule="evenodd" clip-rule="evenodd" d="M229.057 4.04076C227.107 6.59855 226.575 8.18852 227.535 8.58376C229.911 9.56059 229.23 11.9456 226.575 11.9456C225.235 11.9456 224.139 12.6218 224.139 13.4484C224.139 14.2749 223.277 14.9512 222.225 14.9512C219.556 14.9512 215.742 19.7632 217.754 20.5912C220.32 21.6462 219.549 26.9737 216.83 26.9737C215.49 26.9737 214.393 26.2974 214.393 25.4709C214.393 22.9537 212.191 23.7847 209.531 27.3058C207.416 30.1071 206.633 30.3535 204.668 28.8402C203.184 27.6966 202.054 27.5763 201.586 28.5111C201.112 29.4563 200.067 29.4729 198.681 28.5577C197.489 27.7717 195.467 27.4411 194.187 27.8243C192.905 28.2075 186.102 29.1693 179.067 29.9613C160.271 32.0788 143.385 35.6134 132.778 39.6484C123.537 43.165 112.511 47.2136 105.979 49.4904C102.964 50.5408 94.8667 54.3565 87.9866 57.9722C81.1053 61.5865 74.7685 64.544 73.9036 64.544C73.0375 64.544 71.153 65.8966 69.7144 67.5497C68.277 69.2028 66.021 70.5553 64.7017 70.5553C61.5711 70.5553 42.5985 82.3359 40.0562 85.86C38.9721 87.3613 37.1912 88.5891 36.0973 88.5891C35.0034 88.5891 34.108 89.2203 34.108 89.9912C34.108 90.7621 33.0117 91.8216 31.6718 92.3461C30.115 92.9562 29.2355 94.6199 29.2355 96.9552C29.2355 98.966 28.6873 100.612 28.0173 100.612C27.34 100.612 26.7992 104.62 26.7992 109.628C26.7992 114.637 27.34 118.645 28.0173 118.645C28.6873 118.645 29.2355 119.69 29.2355 120.967C29.2355 125.032 34.9157 130.668 39.0123 130.668C41.1002 130.668 43.6242 131.673 44.6194 132.901C46.2201 134.877 45.3028 136.509 36.6588 147.059C31.2856 153.617 25.7723 159.421 24.408 159.955C23.0424 160.49 21.9266 161.588 21.9266 162.397C21.9266 163.205 20.6926 165.423 19.1858 167.325C10.0911 178.801 9.74516 179.661 9.74516 190.767C9.74516 196.787 10.2665 201.3 10.9633 201.3C11.6333 201.3 12.1814 202.301 12.1814 203.526C12.1814 206.623 17.9847 208.105 22.2811 206.103C26.2059 204.276 29.2355 206.392 29.2355 210.962C29.2355 212.583 30.3793 213.323 32.8899 213.323C35.7184 213.323 36.5443 213.994 36.5443 216.294C36.5443 219.839 41.5314 224.271 44.1334 223.038C45.1834 222.542 46.2858 223.166 46.6976 224.49C47.264 226.31 48.0923 226.499 50.5091 225.366C52.9503 224.221 53.5984 224.382 53.5984 226.134C53.5984 227.353 54.1465 228.351 54.8165 228.351C55.4865 228.351 56.0346 229.162 56.0346 230.154C56.0346 231.556 55.7094 231.556 54.5729 230.154C52.1731 227.194 50.888 228.112 52.7773 231.439C54.0698 233.716 54.2549 235.985 53.4839 240.08C52.9089 243.134 52.4338 246.648 52.4277 247.887C52.4192 249.891 52.5508 249.891 53.6166 247.887C54.6837 245.884 54.9493 245.884 56.0164 247.887C57.6365 250.934 57.5585 251.804 55.4256 254.435C54.4206 255.675 53.5984 257.504 53.5984 258.499C53.5984 259.495 52.5885 261.402 51.3533 262.74C50.1181 264.076 48.4736 266.647 47.6989 268.452C46.0337 272.332 45.8242 279.446 47.3761 279.446C49.1387 279.446 49.8075 285.701 48.8427 293.148C47.6331 302.479 48.805 305.552 54.4474 307.85C58.7292 309.593 59.6586 309.473 63.7479 306.638C66.2464 304.909 70.0555 303.47 72.2116 303.443C74.3689 303.418 76.9563 302.572 77.9613 301.565C80.9335 298.586 83.1493 292.055 82.3015 288.764C81.7204 286.501 82.1614 285.447 83.9898 284.73C88.0865 283.127 89.2839 285.24 88.564 292.799C87.7235 301.629 90.8188 307.367 95.6219 305.881C98.0716 305.122 98.6697 305.496 98.6697 307.788C98.6697 311.728 100.966 313.708 106.893 314.877C110.729 315.634 112.427 315.287 113.925 313.44C116.184 310.652 120.596 310.168 120.596 312.708C120.596 315.374 125.571 320.025 128.396 320C133.185 319.959 145.766 313.736 147.793 310.404C148.509 309.228 148.977 309.292 149.416 310.63C150.359 313.496 159.577 313.093 159.577 310.187C159.577 305.278 168.082 297.48 173.433 297.48C175.113 297.48 176.826 296.804 177.24 295.977C177.654 295.151 179.299 294.475 180.894 294.475C182.49 294.475 184.158 293.752 184.6 292.87C185.042 291.987 187.13 291.379 189.24 291.519C195.215 291.915 195.795 291.67 196.475 288.463C197.142 285.312 201.481 284.286 202.821 286.961C203.235 287.787 204.911 288.463 206.547 288.463C208.183 288.463 209.521 287.787 209.521 286.961C209.521 286.134 210.617 285.458 211.957 285.458C213.297 285.458 214.393 284.781 214.393 283.955C214.393 283.128 215.49 282.452 216.83 282.452C218.17 282.452 219.266 281.776 219.266 280.949C219.266 280.123 220.362 279.446 221.702 279.446C223.042 279.446 224.139 278.77 224.139 277.944C224.139 277.117 225.783 276.441 227.793 276.441C229.803 276.441 231.447 275.765 231.447 274.938C231.447 274.111 234.155 273.435 237.466 273.435C240.777 273.435 243.742 272.921 244.058 272.293C244.372 271.665 248.104 270.942 252.352 270.688C256.598 270.434 260.257 269.596 260.479 268.825C260.704 268.055 262.553 267.424 264.591 267.424C268.059 267.424 268.249 267.134 267.565 262.916C266.95 259.124 267.217 258.407 269.24 258.407C270.563 258.407 271.646 259.083 271.646 259.91C271.646 260.736 272.743 261.413 274.083 261.413C275.422 261.413 276.519 260.736 276.519 259.91C276.519 259.083 279.26 258.407 282.61 258.407C285.959 258.407 288.7 257.731 288.7 256.904C288.7 256.078 291.167 255.401 294.182 255.401C298.851 255.401 299.664 254.957 299.664 252.396C299.664 249.835 300.476 249.39 305.145 249.39C310.221 249.39 310.627 249.105 310.627 245.526C310.627 238.262 307.656 236.917 287.178 234.918C281.691 234.383 278.955 234.657 278.955 235.742C278.955 236.788 275.042 237.368 267.992 237.368C261.495 237.368 257.028 236.756 257.028 235.865C257.028 235.038 258.399 234.362 260.074 234.362C261.749 234.362 263.119 233.77 263.119 233.047C263.119 231.093 269.895 229.509 279.945 229.114C284.845 228.92 289.477 227.993 290.239 227.054C291 226.115 292.611 225.345 293.816 225.345C295.022 225.345 296.009 224.669 296.009 223.842C296.009 223.016 297.347 222.34 298.983 222.34C300.619 222.34 302.295 221.663 302.709 220.837C303.123 220.01 304.467 219.334 305.696 219.334C306.925 219.334 308.275 218.225 308.697 216.868C309.842 213.186 306.188 207.311 302.753 207.311C298.469 207.311 297.772 204.57 301.745 203.35C305.785 202.109 308.098 198.801 308.152 194.19C308.178 191.939 309.091 190.612 310.931 190.152C321.018 187.629 321.051 187.611 318.786 186.048C316.847 184.709 312.806 185.106 306.675 187.234C305.036 187.803 304.742 187.35 305.389 185.243C306.946 180.175 308.73 178.938 311.233 181.195C312.495 182.335 313.972 183.266 314.514 183.266C315.755 183.266 315.825 177.332 314.586 177.042C310.667 176.123 304.95 176.196 303.938 177.175C303.262 177.831 300.595 179.207 298.012 180.234C294.281 181.718 292.737 181.72 290.502 180.244C286.908 177.871 285.677 172.571 288.183 170.261C289.257 169.271 289.559 168.142 288.888 167.63C286.908 166.121 288.817 160.724 291.33 160.724C294.542 160.724 296.976 157.612 296.292 154.382C295.98 152.911 296.337 151.707 297.085 151.707C297.834 151.707 298.445 151.031 298.445 150.204C298.445 149.378 297.623 148.702 296.618 148.702C295.613 148.702 294.791 147.922 294.791 146.969C294.791 146.016 293.708 146.777 292.384 148.66C289.373 152.943 285.095 153.025 280.388 148.889C278.387 147.133 275.641 145.696 274.281 145.696C272.88 145.696 271.476 144.395 271.037 142.69C270.292 139.791 266.774 138.362 266.774 140.958C266.774 144.491 261.963 148.702 257.93 148.702C253.476 148.702 251.614 146.18 252.933 141.939C253.486 140.164 252.586 139.685 248.704 139.685C245.992 139.685 243.434 140.361 243.02 141.188C242.606 142.014 240.929 142.69 239.294 142.69C237.658 142.69 236.32 142.014 236.32 141.188C236.32 140.361 237.416 139.685 238.756 139.685C240.096 139.685 241.193 139.008 241.193 138.182C241.193 137.355 243.148 136.679 245.538 136.679C249.33 136.679 249.785 136.296 249.111 133.673C248.406 130.938 248.891 130.668 254.511 130.668C259.87 130.668 260.683 131.063 260.683 133.673C260.683 135.677 261.495 136.679 263.119 136.679C264.459 136.679 265.556 136.003 265.556 135.176C265.556 134.35 266.341 133.673 267.301 133.673C268.261 133.673 269.394 132.321 269.819 130.668C270.893 126.495 272.864 126.9 272.864 131.296C272.864 137.488 274.153 139.685 277.786 139.685C281.575 139.685 283.347 135.898 282 130.668C281.341 128.109 281.781 127.662 284.964 127.662C287.888 127.662 288.7 127.009 288.7 124.657C288.7 121.329 290.584 120.585 291.552 123.529C292.016 124.944 292.489 124.85 293.462 123.154C294.338 121.625 294.759 121.505 294.773 122.778C294.782 123.812 295.613 124.657 296.618 124.657C297.623 124.657 298.445 125.381 298.445 126.266C298.445 130.176 301.511 123.465 301.585 119.397C301.628 116.917 302.096 113.704 302.622 112.258C303.42 110.064 302.951 109.628 299.794 109.628C297.712 109.628 296.009 108.952 296.009 108.126C296.009 107.299 294.398 106.623 292.427 106.623C290.456 106.623 288.505 105.947 288.091 105.12C287.677 104.293 285.941 103.617 284.235 103.617C281.742 103.617 281.311 103.099 282.047 100.987C282.55 99.5401 282.991 97.0048 283.026 95.3517C283.111 91.4504 286.033 88.6973 290.151 88.6372C291.954 88.6101 293.768 87.9128 294.182 87.0863C294.596 86.2597 296.287 85.5834 297.939 85.5834C300.044 85.5834 301.298 84.4278 302.132 81.7212C303.703 76.6237 301.65 74.1425 293.989 71.8838C283.902 68.9097 284.159 69.0901 286.718 66.7652C288.086 65.5239 290.404 65.04 292.505 65.5585C294.432 66.0333 296.009 65.7703 296.009 64.9739C296.009 64.1759 297.436 62.7226 299.179 61.7428C301.792 60.2731 302.085 59.5712 300.856 57.7438C300.036 56.525 298.653 55.5272 297.78 55.5272C296.909 55.5272 294.6 53.8696 292.648 51.8453C289.611 48.6909 288.854 48.4624 287.379 50.2568C286.431 51.4079 282.837 52.8041 279.394 53.3586L273.132 54.3685L272.496 47.8087C272.148 44.202 271.476 39.3915 271.003 37.1177C270.16 33.0631 270.249 32.985 275.637 32.985C279.523 32.985 281.348 32.2892 281.87 30.6075C283.204 26.3185 282.653 24.4745 279.507 22.7072C274.988 20.1659 270.343 20.5597 264.625 23.9681C258.271 27.7552 258.247 27.7522 258.247 23.11C258.247 17.4083 255.522 14.9512 249.197 14.9512C244.947 14.9512 243.629 15.5102 243.629 17.3121C243.629 21.2976 240.202 24.3648 236.893 23.3399C234.682 22.6546 233.884 23.0138 233.884 24.6909C233.884 26.1411 232.741 26.9737 230.752 26.9737C227.508 26.9737 224.139 23.9305 224.139 21.0015C224.139 17.8862 230.095 11.9456 233.22 11.9456C235.738 11.9456 236.32 11.2197 236.32 8.08182C236.32 4.85678 233.839 -0.311393 232.448 0.0147176C232.233 0.0658133 230.707 1.87671 229.057 4.04076ZM263.424 7.97813C261.549 9.12327 260.683 10.9943 260.683 13.8947C260.683 17.8787 260.962 18.1101 265.251 17.6713C268.957 17.2941 269.895 16.5517 270.217 13.7414C270.596 10.4457 268.559 5.72541 266.93 6.11915C266.508 6.21984 264.932 7.0569 263.424 7.97813ZM294.222 32.0111C292.868 33.2329 291.794 36.3182 291.585 39.5883C291.269 44.5401 291.424 44.8677 293.099 42.8013C294.126 41.5345 295.455 40.499 296.053 40.499C296.652 40.499 297.762 39.0684 298.521 37.3176C299.595 34.8424 299.525 33.6732 298.204 32.0442C296.764 30.2679 296.161 30.2619 294.222 32.0111ZM260.101 35.3429C258.379 37.4663 256.127 38.9872 255.094 38.7242C252.374 38.0299 257.521 31.4821 260.785 31.4821C263.055 31.4821 263.006 31.7587 260.101 35.3429ZM281.02 69.2794C279.999 69.9842 278.199 70.103 277.017 69.5439C275.024 68.6001 275.038 68.4529 277.217 67.4956C280.475 66.0619 283.574 67.5151 281.02 69.2794ZM277.949 78.409C277.279 79.2356 276.077 79.4129 275.276 78.8027C274.171 77.9597 274.206 77.4021 275.416 76.4779C277.495 74.8939 279.536 76.4508 277.949 78.409ZM281.919 84.2429C281.55 84.9808 280.216 85.5834 278.955 85.5834C277.694 85.5834 276.324 86.2597 275.91 87.0863C274.817 89.2668 271.646 88.9302 271.646 86.6354C271.646 85.5609 272.194 84.0055 272.863 83.1804C274.343 81.3545 282.865 82.3554 281.919 84.2429ZM272.478 93.38C272.09 94.5778 271.801 94.2216 271.742 92.4708C271.69 90.8869 271.978 90.0002 272.382 90.4992C272.786 90.9981 272.83 92.295 272.478 93.38ZM278.955 95.3517C278.094 96.6321 277.139 97.3685 276.832 96.9898C276.161 96.1617 279.357 91.6533 280.043 92.4618C280.305 92.7714 279.816 94.0713 278.955 95.3517ZM267.992 97.3745C267.992 99.6047 267.155 100.086 263.719 99.8286C261.368 99.6528 259.587 98.9224 259.76 98.2056C259.933 97.4902 261.033 97.104 262.206 97.349C263.379 97.5939 264.337 97.0755 264.337 96.1978C264.337 95.3187 265.16 94.6003 266.165 94.6003C267.17 94.6003 267.992 95.8492 267.992 97.3745ZM74.8148 101.148C74.3921 102.507 73.5028 103.617 72.8377 103.617C71.3747 103.617 64.5617 112.407 64.5617 114.296C64.5617 115.036 63.7394 115.64 62.7344 115.64C61.7295 115.64 60.9072 116.316 60.9072 117.143C60.9072 117.969 59.8109 118.645 58.4709 118.645C57.131 118.645 56.0346 119.322 56.0346 120.148C56.0346 120.975 54.3902 121.651 52.3802 121.651C50.3703 121.651 48.7258 121.283 48.7258 120.832C48.7258 119.649 54.5509 112.634 55.5316 112.634C55.9859 112.634 57.2443 111.451 58.3284 110.004C60.6807 106.863 70.1773 100.612 72.5953 100.612C73.537 100.612 74.3068 99.8226 74.3068 98.8578C74.3068 97.8945 74.5943 97.4587 74.9451 97.8915C75.2947 98.3243 75.2363 99.7895 74.8148 101.148ZM51.9453 126.911C53.5691 128.914 53.5691 129.416 51.9453 131.419C49.6552 134.245 47.8219 134.275 45.5939 131.526C43.2332 128.615 43.4037 127.662 46.2895 127.662C47.6295 127.662 48.7258 126.986 48.7258 126.159C48.7258 124.036 49.8233 124.293 51.9453 126.911ZM9.74516 147.199C9.74516 148.025 10.2933 148.702 10.9633 148.702C11.6333 148.702 12.1814 148.025 12.1814 147.199C12.1814 146.372 11.6333 145.696 10.9633 145.696C10.2933 145.696 9.74516 146.372 9.74516 147.199ZM308.191 153.21C308.191 154.037 308.772 154.713 309.481 154.713C310.19 154.713 310.432 154.037 310.018 153.21C309.604 152.384 309.024 151.707 308.728 151.707C308.432 151.707 308.191 152.384 308.191 153.21ZM304.308 172.27C305.187 172.705 306.238 172.65 306.642 172.152C307.047 171.653 306.328 171.298 305.044 171.363C303.625 171.435 303.336 171.791 304.308 172.27ZM292.05 175.244C292.888 175.662 294.259 175.662 295.096 175.244C295.934 174.828 295.248 174.487 293.573 174.487C291.898 174.487 291.213 174.828 292.05 175.244ZM281.061 178.163C280.657 178.662 279.606 178.716 278.727 178.282C277.755 177.802 278.044 177.446 279.463 177.374C280.747 177.309 281.466 177.664 281.061 178.163ZM275.301 180.261C275.301 181.087 274.753 181.764 274.083 181.764C273.413 181.764 272.864 181.087 272.864 180.261C272.864 179.434 273.413 178.758 274.083 178.758C274.753 178.758 275.301 179.434 275.301 180.261ZM287.482 183.266C287.482 184.093 286.901 184.769 286.192 184.769C285.483 184.769 285.241 184.093 285.655 183.266C286.069 182.44 286.649 181.764 286.945 181.764C287.241 181.764 287.482 182.44 287.482 183.266ZM280.782 186.272C281.196 187.099 280.648 187.775 279.564 187.775C278.48 187.775 277.932 187.099 278.346 186.272C278.76 185.445 279.308 184.769 279.564 184.769C279.82 184.769 280.368 185.445 280.782 186.272ZM41.4169 207.311C41.4169 208.964 40.8687 210.317 40.1988 210.317C39.5288 210.317 38.9806 208.964 38.9806 207.311C38.9806 205.658 39.5288 204.306 40.1988 204.306C40.8687 204.306 41.4169 205.658 41.4169 207.311ZM22.5357 239.171C21.1957 240.113 19.1285 242.243 17.9408 243.902C16.2842 246.218 15.4485 246.508 14.3473 245.149C11.9183 242.153 7.30887 242.961 7.30887 246.385C7.30887 248.89 8.12137 249.39 12.1814 249.39C14.8614 249.39 17.054 250.066 17.054 250.893C17.054 251.72 18.1504 252.396 19.4903 252.396C21.1141 252.396 21.9266 253.398 21.9266 255.401C21.9266 257.877 22.7391 258.407 26.53 258.407C29.7361 258.407 31.6669 259.319 32.8899 261.413C34.6988 264.51 41.4169 265.693 41.4169 262.916C41.4169 262.089 43.0614 261.413 45.0713 261.413C47.0813 261.413 48.7258 260.736 48.7258 259.91C48.7258 259.083 49.548 258.407 50.553 258.407C52.664 258.407 52.8382 257.083 51.1438 253.899C50.0767 251.895 49.8111 251.895 48.7441 253.899C48.0022 255.295 47.5381 255.463 47.5259 254.342C47.5162 253.347 46.0568 250.743 44.2844 248.556C41.7373 245.414 41.4108 244.312 42.7264 243.31C43.6425 242.611 43.9872 241.541 43.4926 240.931C42.9993 240.321 41.9456 240.623 41.1526 241.601C39.4009 243.762 34.108 243.97 34.108 241.876C34.108 241.05 32.4636 240.373 30.4536 240.373C28.4437 240.373 26.7992 239.697 26.7992 238.87C26.7992 236.944 25.5835 237.03 22.5357 239.171ZM221.702 247.887C221.702 248.714 221.154 249.39 220.484 249.39C219.814 249.39 219.266 248.714 219.266 247.887C219.266 247.061 219.814 246.385 220.484 246.385C221.154 246.385 221.702 247.061 221.702 247.887ZM0 250.893C0 251.72 0.548165 252.396 1.21814 252.396C1.88812 252.396 2.43629 251.72 2.43629 250.893C2.43629 250.066 1.88812 249.39 1.21814 249.39C0.548165 249.39 0 250.066 0 250.893ZM21.9266 271.6C21.9266 272.245 23.0229 273.746 24.3629 274.938C25.7028 276.13 26.7992 278.307 26.7992 279.779C26.7992 283.043 27.6251 283.151 30.0187 280.198C31.6425 278.195 31.6425 277.693 30.0187 275.689C29.0138 274.45 27.3303 273.435 26.2766 273.435C25.2241 273.435 24.3629 272.759 24.3629 271.932C24.3629 271.106 23.8147 270.43 23.1447 270.43C22.4748 270.43 21.9266 270.957 21.9266 271.6ZM96.2334 283.955C96.2334 284.781 95.1371 285.458 93.7971 285.458C92.4572 285.458 91.3608 284.781 91.3608 283.955C91.3608 283.128 92.4572 282.452 93.7971 282.452C95.1371 282.452 96.2334 283.128 96.2334 283.955Z" fill="black"/>
</svg>
